<svg width="919" height="402" viewBox="0 0 919 402" fill="none" xmlns="http://www.w3.org/2000/svg">
<path d="M582.809 140V97.4H566.009V87.5H611.759V97.4H594.959V140H582.809ZM641.997 99.05C645.197 99.05 648.047 99.7 650.547 101C653.097 102.25 655.097 104.2 656.547 106.85C657.997 109.45 658.722 112.8 658.722 116.9V140H647.022V118.7C647.022 115.45 646.297 113.05 644.847 111.5C643.447 109.95 641.447 109.175 638.847 109.175C636.997 109.175 635.322 109.575 633.822 110.375C632.372 111.125 631.222 112.3 630.372 113.9C629.572 115.5 629.172 117.55 629.172 120.05V140H617.472V84.35H629.172V110.825L626.547 107.45C627.997 104.75 630.072 102.675 632.772 101.225C635.472 99.775 638.547 99.05 641.997 99.05ZM689.645 140.6C685.045 140.6 680.995 139.7 677.495 137.9C674.045 136.1 671.37 133.65 669.47 130.55C667.57 127.4 666.62 123.825 666.62 119.825C666.62 115.775 667.545 112.2 669.395 109.1C671.295 105.95 673.87 103.5 677.12 101.75C680.37 99.95 684.045 99.05 688.145 99.05C692.095 99.05 695.645 99.9 698.795 101.6C701.995 103.25 704.52 105.65 706.37 108.8C708.22 111.9 709.145 115.625 709.145 119.975C709.145 120.425 709.12 120.95 709.07 121.55C709.02 122.1 708.97 122.625 708.92 123.125H676.145V116.3H702.77L698.27 118.325C698.27 116.225 697.845 114.4 696.995 112.85C696.145 111.3 694.97 110.1 693.47 109.25C691.97 108.35 690.22 107.9 688.22 107.9C686.22 107.9 684.445 108.35 682.895 109.25C681.395 110.1 680.22 111.325 679.37 112.925C678.52 114.475 678.095 116.325 678.095 118.475V120.275C678.095 122.475 678.57 124.425 679.52 126.125C680.52 127.775 681.895 129.05 683.645 129.95C685.445 130.8 687.545 131.225 689.945 131.225C692.095 131.225 693.97 130.9 695.57 130.25C697.22 129.6 698.72 128.625 700.07 127.325L706.295 134.075C704.445 136.175 702.12 137.8 699.32 138.95C696.52 140.05 693.295 140.6 689.645 140.6ZM571.934 231V178.5H581.984L604.334 215.55H599.009L620.984 178.5H630.959L631.109 231H619.709L619.634 195.975H621.734L604.184 225.45H598.709L580.784 195.975H583.334V231H571.934ZM661.94 231.6C657.64 231.6 653.815 230.7 650.465 228.9C647.165 227.1 644.54 224.65 642.59 221.55C640.69 218.4 639.74 214.825 639.74 210.825C639.74 206.775 640.69 203.2 642.59 200.1C644.54 196.95 647.165 194.5 650.465 192.75C653.815 190.95 657.64 190.05 661.94 190.05C666.19 190.05 669.99 190.95 673.34 192.75C676.69 194.5 679.315 196.925 681.215 200.025C683.115 203.125 684.065 206.725 684.065 210.825C684.065 214.825 683.115 218.4 681.215 221.55C679.315 224.65 676.69 227.1 673.34 228.9C669.99 230.7 666.19 231.6 661.94 231.6ZM661.94 222C663.89 222 665.64 221.55 667.19 220.65C668.74 219.75 669.965 218.475 670.865 216.825C671.765 215.125 672.215 213.125 672.215 210.825C672.215 208.475 671.765 206.475 670.865 204.825C669.965 203.175 668.74 201.9 667.19 201C665.64 200.1 663.89 199.65 661.94 199.65C659.99 199.65 658.24 200.1 656.69 201C655.14 201.9 653.89 203.175 652.94 204.825C652.04 206.475 651.59 208.475 651.59 210.825C651.59 213.125 652.04 215.125 652.94 216.825C653.89 218.475 655.14 219.75 656.69 220.65C658.24 221.55 659.99 222 661.94 222ZM691.886 231V190.65H703.061V202.05L701.486 198.75C702.686 195.9 704.611 193.75 707.261 192.3C709.911 190.8 713.136 190.05 716.936 190.05V200.85C716.436 200.8 715.986 200.775 715.586 200.775C715.186 200.725 714.761 200.7 714.311 200.7C711.111 200.7 708.511 201.625 706.511 203.475C704.561 205.275 703.586 208.1 703.586 211.95V231H691.886ZM748.491 190.05C751.691 190.05 754.541 190.7 757.041 192C759.591 193.25 761.591 195.2 763.041 197.85C764.491 200.45 765.216 203.8 765.216 207.9V231H753.516V209.7C753.516 206.45 752.791 204.05 751.341 202.5C749.941 200.95 747.941 200.175 745.341 200.175C743.491 200.175 741.816 200.575 740.316 201.375C738.866 202.125 737.716 203.3 736.866 204.9C736.066 206.5 735.666 208.55 735.666 211.05V231H723.966V190.65H735.141V201.825L733.041 198.45C734.491 195.75 736.566 193.675 739.266 192.225C741.966 190.775 745.041 190.05 748.491 190.05ZM775.821 231V190.65H787.521V231H775.821ZM781.671 185.025C779.521 185.025 777.771 184.4 776.421 183.15C775.071 181.9 774.396 180.35 774.396 178.5C774.396 176.65 775.071 175.1 776.421 173.85C777.771 172.6 779.521 171.975 781.671 171.975C783.821 171.975 785.571 172.575 786.921 173.775C788.271 174.925 788.946 176.425 788.946 178.275C788.946 180.225 788.271 181.85 786.921 183.15C785.621 184.4 783.871 185.025 781.671 185.025ZM822.905 190.05C826.105 190.05 828.955 190.7 831.455 192C834.005 193.25 836.005 195.2 837.455 197.85C838.905 200.45 839.63 203.8 839.63 207.9V231H827.93V209.7C827.93 206.45 827.205 204.05 825.755 202.5C824.355 200.95 822.355 200.175 819.755 200.175C817.905 200.175 816.23 200.575 814.73 201.375C813.28 202.125 812.13 203.3 811.28 204.9C810.48 206.5 810.08 208.55 810.08 211.05V231H798.38V190.65H809.555V201.825L807.455 198.45C808.905 195.75 810.98 193.675 813.68 192.225C816.38 190.775 819.455 190.05 822.905 190.05ZM869.503 246.15C865.703 246.15 862.028 245.675 858.478 244.725C854.978 243.825 852.053 242.45 849.703 240.6L854.353 232.2C856.053 233.6 858.203 234.7 860.803 235.5C863.453 236.35 866.053 236.775 868.603 236.775C872.753 236.775 875.753 235.85 877.603 234C879.503 232.15 880.453 229.4 880.453 225.75V219.675L881.203 209.55L881.053 199.35V190.65H892.153V224.25C892.153 231.75 890.203 237.275 886.303 240.825C882.403 244.375 876.803 246.15 869.503 246.15ZM867.703 229.05C863.953 229.05 860.553 228.25 857.503 226.65C854.503 225 852.078 222.725 850.228 219.825C848.428 216.875 847.528 213.45 847.528 209.55C847.528 205.6 848.428 202.175 850.228 199.275C852.078 196.325 854.503 194.05 857.503 192.45C860.553 190.85 863.953 190.05 867.703 190.05C871.103 190.05 874.103 190.75 876.703 192.15C879.303 193.5 881.328 195.625 882.778 198.525C884.228 201.375 884.953 205.05 884.953 209.55C884.953 214 884.228 217.675 882.778 220.575C881.328 223.425 879.303 225.55 876.703 226.95C874.103 228.35 871.103 229.05 867.703 229.05ZM870.028 219.45C872.078 219.45 873.903 219.05 875.503 218.25C877.103 217.4 878.353 216.225 879.253 214.725C880.153 213.225 880.603 211.5 880.603 209.55C880.603 207.55 880.153 205.825 879.253 204.375C878.353 202.875 877.103 201.725 875.503 200.925C873.903 200.075 872.078 199.65 870.028 199.65C867.978 199.65 866.153 200.075 864.553 200.925C862.953 201.725 861.678 202.875 860.728 204.375C859.828 205.825 859.378 207.55 859.378 209.55C859.378 211.5 859.828 213.225 860.728 214.725C861.678 216.225 862.953 217.4 864.553 218.25C866.153 219.05 867.978 219.45 870.028 219.45ZM571.934 322V269.5H597.584C604.184 269.5 609.134 270.75 612.434 273.25C615.784 275.75 617.459 279.05 617.459 283.15C617.459 285.9 616.784 288.3 615.434 290.35C614.084 292.35 612.234 293.9 609.884 295C607.534 296.1 604.834 296.65 601.784 296.65L603.209 293.575C606.509 293.575 609.434 294.125 611.984 295.225C614.534 296.275 616.509 297.85 617.909 299.95C619.359 302.05 620.084 304.625 620.084 307.675C620.084 312.175 618.309 315.7 614.759 318.25C611.209 320.75 605.984 322 599.084 322H571.934ZM584.009 312.85H598.184C601.334 312.85 603.709 312.35 605.309 311.35C606.959 310.3 607.784 308.65 607.784 306.4C607.784 304.2 606.959 302.575 605.309 301.525C603.709 300.425 601.334 299.875 598.184 299.875H583.109V291.025H596.084C599.034 291.025 601.284 290.525 602.834 289.525C604.434 288.475 605.234 286.9 605.234 284.8C605.234 282.75 604.434 281.225 602.834 280.225C601.284 279.175 599.034 278.65 596.084 278.65H584.009V312.85ZM648.483 322.6C643.883 322.6 639.833 321.7 636.333 319.9C632.883 318.1 630.208 315.65 628.308 312.55C626.408 309.4 625.458 305.825 625.458 301.825C625.458 297.775 626.383 294.2 628.233 291.1C630.133 287.95 632.708 285.5 635.958 283.75C639.208 281.95 642.883 281.05 646.983 281.05C650.933 281.05 654.483 281.9 657.633 283.6C660.833 285.25 663.358 287.65 665.208 290.8C667.058 293.9 667.983 297.625 667.983 301.975C667.983 302.425 667.958 302.95 667.908 303.55C667.858 304.1 667.808 304.625 667.758 305.125H634.983V298.3H661.608L657.108 300.325C657.108 298.225 656.683 296.4 655.833 294.85C654.983 293.3 653.808 292.1 652.308 291.25C650.808 290.35 649.058 289.9 647.058 289.9C645.058 289.9 643.283 290.35 641.733 291.25C640.233 292.1 639.058 293.325 638.208 294.925C637.358 296.475 636.933 298.325 636.933 300.475V302.275C636.933 304.475 637.408 306.425 638.358 308.125C639.358 309.775 640.733 311.05 642.483 311.95C644.283 312.8 646.383 313.225 648.783 313.225C650.933 313.225 652.808 312.9 654.408 312.25C656.058 311.6 657.558 310.625 658.908 309.325L665.133 316.075C663.283 318.175 660.958 319.8 658.158 320.95C655.358 322.05 652.133 322.6 648.483 322.6ZM675.773 322V266.35H687.473V322H675.773ZM698.331 322V266.35H710.031V322H698.331ZM768.08 322.9C764.03 322.9 760.255 322.25 756.755 320.95C753.305 319.6 750.305 317.7 747.755 315.25C745.205 312.8 743.205 309.925 741.755 306.625C740.355 303.325 739.655 299.7 739.655 295.75C739.655 291.8 740.355 288.175 741.755 284.875C743.205 281.575 745.205 278.7 747.755 276.25C750.355 273.8 753.38 271.925 756.83 270.625C760.28 269.275 764.055 268.6 768.155 268.6C772.705 268.6 776.805 269.4 780.455 271C784.155 272.55 787.255 274.85 789.755 277.9L781.955 285.1C780.155 283.05 778.155 281.525 775.955 280.525C773.755 279.475 771.355 278.95 768.755 278.95C766.305 278.95 764.055 279.35 762.005 280.15C759.955 280.95 758.18 282.1 756.68 283.6C755.18 285.1 754.005 286.875 753.155 288.925C752.355 290.975 751.955 293.25 751.955 295.75C751.955 298.25 752.355 300.525 753.155 302.575C754.005 304.625 755.18 306.4 756.68 307.9C758.18 309.4 759.955 310.55 762.005 311.35C764.055 312.15 766.305 312.55 768.755 312.55C771.355 312.55 773.755 312.05 775.955 311.05C778.155 310 780.155 308.425 781.955 306.325L789.755 313.525C787.255 316.575 784.155 318.9 780.455 320.5C776.805 322.1 772.68 322.9 768.08 322.9ZM814.943 322.6C810.643 322.6 806.818 321.7 803.468 319.9C800.168 318.1 797.543 315.65 795.593 312.55C793.693 309.4 792.743 305.825 792.743 301.825C792.743 297.775 793.693 294.2 795.593 291.1C797.543 287.95 800.168 285.5 803.468 283.75C806.818 281.95 810.643 281.05 814.943 281.05C819.193 281.05 822.993 281.95 826.343 283.75C829.693 285.5 832.318 287.925 834.218 291.025C836.118 294.125 837.068 297.725 837.068 301.825C837.068 305.825 836.118 309.4 834.218 312.55C832.318 315.65 829.693 318.1 826.343 319.9C822.993 321.7 819.193 322.6 814.943 322.6ZM814.943 313C816.893 313 818.643 312.55 820.193 311.65C821.743 310.75 822.968 309.475 823.868 307.825C824.768 306.125 825.218 304.125 825.218 301.825C825.218 299.475 824.768 297.475 823.868 295.825C822.968 294.175 821.743 292.9 820.193 292C818.643 291.1 816.893 290.65 814.943 290.65C812.993 290.65 811.243 291.1 809.693 292C808.143 292.9 806.893 294.175 805.943 295.825C805.043 297.475 804.593 299.475 804.593 301.825C804.593 304.125 805.043 306.125 805.943 307.825C806.893 309.475 808.143 310.75 809.693 311.65C811.243 312.55 812.993 313 814.943 313ZM848.874 322.6C846.874 322.6 845.149 321.925 843.699 320.575C842.299 319.175 841.599 317.4 841.599 315.25C841.599 313.1 842.299 311.375 843.699 310.075C845.149 308.725 846.874 308.05 848.874 308.05C850.924 308.05 852.649 308.725 854.049 310.075C855.449 311.375 856.149 313.1 856.149 315.25C856.149 317.4 855.449 319.175 854.049 320.575C852.649 321.925 850.924 322.6 848.874 322.6Z" fill="black"/>
<path d="M317.834 360.555C317.422 357.392 316.706 354.119 316.258 353.283C315.713 352.301 313.895 353.865 310.961 357.828C308.501 361.161 303.629 366.155 300.126 368.918C296.623 371.682 291.314 375.087 288.308 376.493C282.891 379.027 281.897 379.039 143.676 379.645C6.25477 380.239 4.47306 380.287 2.72773 382.675C1.74597 384.008 0.643019 386.19 0.267287 387.523C-0.108445 388.856 -0.0842033 391.45 0.31577 393.28C0.727863 395.11 2.14595 397.704 3.47919 399.037C5.89115 401.449 7.51527 401.461 282.915 401.461H559.914C564.908 396.383 565.865 394.032 565.865 391.159C565.865 388.832 565.453 386.02 564.956 384.929C564.459 383.838 562.956 382.335 561.623 381.596C559.914 380.651 525.759 380.069 445.873 379.645L332.548 379.039C324.56 374.809 321.433 371.948 320.427 369.948C319.421 367.949 318.258 363.719 317.834 360.555Z" fill="#F4C95D"/>
<path d="M76.7201 255.074C76.7201 144.617 166.263 55.0742 276.72 55.0742H290.501C400.958 55.0742 490.501 144.617 490.501 255.074V321.315C490.501 332.36 481.546 341.315 470.501 341.315H91.7201C83.4358 341.315 76.7201 334.599 76.7201 326.315V255.074Z" fill="#2E2E2E"/>
<path fill-rule="evenodd" clip-rule="evenodd" d="M285.884 110.831C294.187 111.146 301.35 112.189 306.489 113.813C310.828 115.195 317.894 118.382 322.197 120.891C326.512 123.412 333.336 128.769 337.347 132.806C341.371 136.842 346.438 143.12 348.595 146.744C350.765 150.38 353.868 156.622 355.492 160.622C357.116 164.621 359.807 172.522 361.455 178.195C363.103 183.867 366.958 196.545 370.012 206.375C373.078 216.204 377.805 229.84 380.532 236.676C383.26 243.512 388.205 254.832 391.526 261.825C394.835 268.819 401.404 281.097 406.119 289.096C410.833 297.096 417.172 307.192 420.202 311.519C423.233 315.846 426.917 321.034 431.05 326.669L411.488 320.428C400.737 316.985 385.126 312.501 376.787 310.452C368.461 308.404 355.37 305.665 347.698 304.356C340.026 303.047 328.306 301.411 321.639 300.732C314.973 300.053 302.15 299.132 293.157 298.696C284.03 298.259 268.879 298.502 258.916 299.253C249.087 300.005 235.173 301.471 228.009 302.514C220.846 303.556 207.344 306.065 198.011 308.089C188.679 310.101 172.037 314.452 161.044 317.737C150.051 321.034 140.088 323.979 138.925 324.294C137.494 324.67 138.767 322.161 142.767 316.67C146.051 312.174 151.821 303.58 155.578 297.581C159.335 291.581 166.401 278.77 171.286 269.098C176.171 259.426 183.188 243.887 186.897 234.555C190.606 225.222 197.284 205.308 201.745 190.315C206.193 175.31 211.029 160.319 212.483 156.985C213.938 153.652 216.98 148.198 219.259 144.865C221.525 141.532 225.585 136.417 228.276 133.496C230.955 130.575 236.166 126.139 239.827 123.643C243.487 121.146 248.675 118.152 251.341 116.976C254.008 115.813 260.007 113.837 264.674 112.589C271.182 110.868 276.115 110.456 285.884 110.831Z" fill="url(#paint0_linear_11_90)"/>
<path fill-rule="evenodd" clip-rule="evenodd" d="M281.976 0.0120858C289.309 -0.0848774 301.042 0.412059 308.035 1.12716C315.029 1.83015 324.858 3.24823 329.852 4.27846C334.858 5.3087 343.584 7.50249 349.244 9.13874C354.905 10.7871 365.28 14.5323 372.273 17.4897C379.267 20.4349 390.175 25.8043 396.514 29.4162C402.853 33.028 413.204 39.8397 419.543 44.5303C425.882 49.233 436.633 58.699 443.444 65.5592C450.244 72.4193 458.655 81.5823 462.122 85.9093C465.588 90.2363 471.285 98.1509 474.775 103.484C478.266 108.817 484.132 119.18 487.805 126.513C491.477 133.845 496.968 147.202 499.998 156.208C503.028 165.213 506.919 179.394 508.64 187.721C511.1 199.599 511.936 207.853 512.482 225.9C513.027 244.044 512.749 251.886 511.137 262.867C510.009 270.527 508.009 281.169 506.688 286.502C505.367 291.835 502.87 300.561 501.161 305.894C499.44 311.227 495.513 320.924 492.423 327.444C489.332 333.965 486.399 339.286 485.902 339.262C485.405 339.238 481.042 334.971 476.206 329.772C471.369 324.56 464.158 315.979 460.17 310.682C456.183 305.385 449.492 295.459 445.323 288.623C441.141 281.787 434.802 270.333 431.227 263.17C427.651 256.007 421.967 243.329 418.597 234.99C415.228 226.663 408.562 207.028 403.786 191.357C399.023 175.685 392.757 157.965 389.872 151.965C386.987 145.966 382.588 138.051 380.079 134.391C377.582 130.731 372.964 124.719 369.825 121.058C366.686 117.398 360.371 111.35 355.777 107.617C351.184 103.896 344.154 98.8781 340.154 96.4662C336.154 94.0542 328.519 90.4787 323.186 88.5031C317.853 86.5396 308.847 84.0428 303.187 82.9762C297.527 81.9096 289.067 81.049 284.4 81.0733C279.734 81.0854 272.098 81.6672 267.432 82.3459C262.766 83.0368 253.772 85.3275 247.433 87.4486C241.094 89.5697 231.422 94.0421 225.932 97.3873C220.441 100.745 212.26 106.793 207.751 110.829C203.242 114.865 196.079 122.767 191.837 128.403C187.583 134.027 181.462 144.087 178.226 150.753C174.771 157.868 169.584 172.134 165.657 185.297C161.984 197.635 157.112 212.895 154.845 219.234C152.567 225.573 147.913 237.293 144.519 245.292C141.113 253.292 134.98 265.837 130.896 273.169C126.799 280.502 120.024 291.677 115.83 298.016C111.636 304.355 103.867 314.706 98.5584 321.045C93.2497 327.384 86.9713 334.462 80.3293 341.044L76.0145 332.256C73.6268 327.42 69.5786 317.336 66.9969 309.834C64.4274 302.331 61.167 291.289 59.7731 285.29C58.3793 279.29 56.3916 267.97 55.3734 260.14C54.3432 252.31 53.519 240.311 53.5311 233.475C53.5433 226.639 54.0887 215.876 54.7432 209.537C55.3977 203.198 57.0582 192.29 58.4399 185.297C59.8338 178.303 63.1184 166.025 65.7485 158.026C68.3786 150.026 74.6085 135.3 79.59 125.301C84.5594 115.301 92.3164 101.981 96.8252 95.6905C101.334 89.4121 110.752 78.2856 117.745 70.977C124.738 63.6684 134.835 54.2872 140.168 50.1299C145.501 45.9847 154.773 39.4034 160.772 35.5127C166.772 31.6221 177.135 25.8891 183.801 22.7499C190.467 19.6229 201.376 15.1626 208.042 12.8355C214.708 10.5083 226.441 7.19948 234.101 5.47838C241.761 3.74517 252.669 1.85439 258.342 1.26049C264.014 0.666588 274.644 0.0969285 281.976 0.0120858Z" fill="url(#paint1_linear_11_90)"/>
<defs>
<linearGradient id="paint0_linear_11_90" x1="150.828" y1="298.849" x2="431.196" y2="296.524" gradientUnits="userSpaceOnUse">
<stop stop-color="#F4C95D"/>
<stop offset="0.5" stop-color="#D46A38"/>
<stop offset="1" stop-color="#781C2E"/>
</linearGradient>
<linearGradient id="paint1_linear_11_90" x1="73.0968" y1="297.11" x2="512.965" y2="293.487" gradientUnits="userSpaceOnUse">
<stop stop-color="#FBE8A6"/>
<stop offset="0.25" stop-color="#F4C95D"/>
<stop offset="0.5" stop-color="#EFA53A"/>
<stop offset="0.75" stop-color="#D3542C"/>
<stop offset="1" stop-color="#781C2E"/>
</linearGradient>
</defs>
</svg>
